<svg width="18" height="18" viewBox="0 0 18 18" fill="none" xmlns="http://www.w3.org/2000/svg">
<path d="M16.1507 5.62587C16.1626 5.78538 16.1626 5.94398 16.1626 6.10258C16.1626 10.9562 12.4503 16.5491 5.66599 16.5491C3.57582 16.5491 1.63403 15.9466 0 14.9002C0.296764 14.9339 0.582536 14.9458 0.891207 14.9458C2.55179 14.9498 4.16536 14.3972 5.47181 13.3771C4.70189 13.3632 3.95554 13.1105 3.33698 12.6541C2.71841 12.1977 2.2585 11.5604 2.02147 10.8313C2.24954 10.8651 2.47853 10.8879 2.7185 10.8879C3.04916 10.8879 3.38164 10.8423 3.69031 10.763C2.85476 10.5951 2.10343 10.1444 1.56407 9.48753C1.02472 8.83066 0.730637 8.00816 0.731834 7.1599V7.11432C1.22369 7.38685 1.79432 7.5573 2.39884 7.58009C1.89241 7.2452 1.47715 6.79077 1.19011 6.25734C0.903077 5.72391 0.753187 5.12807 0.753816 4.52298C0.753816 3.84119 0.936088 3.21592 1.25575 2.67085C2.18281 3.80566 3.33905 4.73404 4.64961 5.39587C5.96016 6.05769 7.39579 6.4382 8.86353 6.51274C8.80674 6.2393 8.77193 5.95583 8.77193 5.67145C8.77169 5.18924 8.86696 4.71171 9.05228 4.26616C9.2376 3.82061 9.50935 3.41578 9.85199 3.07481C10.1946 2.73383 10.6014 2.46341 11.0492 2.27898C11.4969 2.09456 11.9768 1.99976 12.4613 2C13.5238 2 14.4828 2.44298 15.1569 3.1594C15.9829 3.00046 16.775 2.7004 17.4981 2.27253C17.2227 3.12095 16.646 3.84038 15.8759 4.29602C16.6085 4.21288 17.3244 4.02117 18 3.72726C17.4954 4.45927 16.8702 5.10117 16.1507 5.62587Z" fill="#565454"/>
</svg>
