<svg width="18" height="18" viewBox="0 0 18 18" fill="none" xmlns="http://www.w3.org/2000/svg">
<path fill-rule="evenodd" clip-rule="evenodd" d="M16.485 1.50904C16.9382 1.96136 17.2918 2.50317 17.5232 3.0998C17.79 3.80763 17.9324 4.55616 17.944 5.31238C18 6.26747 18 6.57685 18 9.01497C18 11.4531 17.987 11.7575 17.944 12.7176C17.929 13.4641 17.7881 14.2006 17.5252 14.8992C17.2935 15.4958 16.9398 16.0375 16.4866 16.49C16.0335 16.9424 15.4909 17.2956 14.8934 17.5269C14.1939 17.7886 13.4551 17.9299 12.7084 17.9451C11.7538 18 11.4409 18 9 18C6.55908 18 6.25422 17.987 5.29165 17.9451C4.54335 17.9205 3.80474 17.7687 3.10762 17.496C2.50995 17.265 1.9671 16.9121 1.51376 16.4599C1.06042 16.0076 0.706564 15.4658 0.474789 14.8693C0.211906 14.1697 0.0709685 13.4331 0.0559751 12.6866C0 11.7315 0 11.4212 0 8.98403C0 6.54591 0.0129942 6.24152 0.0559751 5.28144C0.0705831 4.53577 0.21221 3.79802 0.474789 3.0998C0.705915 2.50302 1.05943 1.96106 1.51266 1.50871C1.96589 1.05636 2.50882 0.703594 3.10662 0.473054C3.80507 0.210181 4.54337 0.0684199 5.28965 0.0538921C6.24422 0 6.55709 0 8.998 0C11.4389 0 11.7438 0.0119759 12.7064 0.0538921C13.4532 0.0692027 14.192 0.210935 14.8914 0.473054C15.489 0.703863 16.0318 1.05672 16.485 1.50904ZM15.9949 14.2974C16.1942 13.7577 16.2993 13.1879 16.3058 12.6128V12.6138H16.3167C16.3597 11.6597 16.3597 11.3982 16.3597 8.96707C16.3597 6.53493 16.3487 6.26846 16.3058 5.31936C16.2964 4.75066 16.1914 4.18757 15.9949 3.65369C15.8447 3.26554 15.6149 2.91303 15.3202 2.61879C15.0255 2.32455 14.6724 2.09508 14.2837 1.94511C13.7492 1.74658 13.1845 1.64158 12.6144 1.63473C11.6478 1.57984 11.3979 1.57984 8.96202 1.57984C6.5261 1.57984 6.25922 1.59182 5.30864 1.63473C4.73892 1.64268 4.17473 1.74764 3.64038 1.94511C2.85173 2.24651 2.22701 2.86627 1.92215 3.65369C1.72289 4.19303 1.61774 4.7625 1.61128 5.33733C1.55831 6.30439 1.55831 6.55289 1.55831 8.98503C1.55831 11.4162 1.5683 11.6836 1.61128 12.6317C1.62059 13.2004 1.72568 13.7635 1.92215 14.2974C2.07291 14.6862 2.30375 15.0391 2.59973 15.3333C2.89571 15.6274 3.25024 15.8563 3.64038 16.005C4.17447 16.2034 4.73882 16.3084 5.30864 16.3154C6.27621 16.3703 6.5251 16.3703 8.96202 16.3703C11.3969 16.3703 11.6648 16.3593 12.6144 16.3154C13.1845 16.308 13.7491 16.203 14.2837 16.005C14.6724 15.8553 15.0255 15.6261 15.3203 15.332C15.615 15.0379 15.8448 14.6855 15.9949 14.2974ZM13.798 5.26949C14.3931 5.26949 14.8755 4.78782 14.8755 4.19365C14.8755 3.59947 14.3931 3.1178 13.798 3.1178C13.2029 3.1178 12.7204 3.59947 12.7204 4.19365C12.7204 4.78782 13.2029 5.26949 13.798 5.26949ZM8.99315 4.36334C7.76733 4.36334 6.59172 4.84954 5.72494 5.71498C4.85816 6.58042 4.3712 7.7542 4.3712 8.97811C4.3712 10.202 4.85816 11.3758 5.72494 12.2412C6.59172 13.1067 7.76733 13.5929 8.99315 13.5929C10.219 13.5929 11.3946 13.1067 12.2614 12.2412C13.1281 11.3758 13.6151 10.202 13.6151 8.97811C13.6151 7.7542 13.1281 6.58042 12.2614 5.71498C11.3946 4.84954 10.219 4.36334 8.99315 4.36334ZM8.99315 11.9751C8.19679 11.9751 7.43305 11.6593 6.86995 11.097C6.30684 10.5348 5.99049 9.77224 5.99049 8.97712C5.99049 8.182 6.30684 7.41944 6.86995 6.85721C7.43305 6.29497 8.19679 5.97911 8.99315 5.97911C9.78951 5.97911 10.5532 6.29497 11.1164 6.85721C11.6795 7.41944 11.9958 8.182 11.9958 8.97712C11.9958 9.77224 11.6795 10.5348 11.1164 11.097C10.5532 11.6593 9.78951 11.9751 8.99315 11.9751Z" fill="#565454"/>
</svg>
